PathFileType	4	(X/Y/Z)	C:/Users/beibeiliu/ov580/test_trc/User2\sequence.43_training_dense_right.trc
DataRate	CameraRate	NumFrames	NumMarkers	Units	OrigDataRate	OrigDataStartFrame	OrigNumFrames
120	120	8	19	mm	120	81	107
Frame#	Time	ThumbCMC			ThumbMCP			ThumbIP			ThumbTip			IndexMCP			IndexPIP			IndexTip			MiddleMCP			MiddlePIP			MiddleTip			RingMCP			RingPIP			RingTip			PinkyMCP			PinkyPIP			PinkyTip			BackHand1			BackHand2			BackHand3	
		X0	Y0	Z0	X1	Y1	Z1	X2	Y2	Z2	X3	Y3	Z3	X4	Y4	Z4	X5	Y5	Z5	X6	Y6	Z6	X7	Y7	Z7	X8	Y8	Z8	X9	Y9	Z9	X10	Y10	Z10	X11	Y11	Z11	X12	Y12	Z12	X13	Y13	Z13	X14	Y14	Z14	X15	Y15	Z15	X16	Y16	Z16	X17	Y17	Z17	X18	Y18	Z18	
80	0.666667	30.7628	55.6165	38.0991	1.65203	46.2595	10.967	-13.3246	40.5514	-18.844	-8.27986	38.6538	-49.0777	31.4933	117.697	-17.8818	14.4472	132.805	-41.4981	-6.23113	120.225	-65.435	31.3472	92.0178	-47.8539	11.6894	66.2946	-65.2	8.70596	35.6502	-39.1912	45.0001	74.4046	-55.8249	24.6727	49.8615	-62.1113	27.474	29.5211	-30.5761	60.6561	60.1499	-56.8826	37.4432	34.4612	-59.7392	40.4944	20.2145	-28.7575	84.756	76.4183	-3.56608	98.839	63.4382	22.1478	65.168	80.5313	28.6873	
81	0.675	30.1079	52.1801	34.9814	4.02604	41.4707	8.62925	-11.9202	37.1843	-22.4035	0.0314569	36.3037	-49.2276	27.7563	116.548	-16.096	12.9231	131.345	-41.2256	-7.57803	120.342	-67.5239	32.4815	90.8701	-52.284	13.5126	61.874	-65.6401	11.6575	33.7801	-40.1735	46.2938	72.5241	-59.4612	25.5765	46.7449	-62.8618	33.156	25.8277	-33.4265	62.5371	58.8654	-59.4651	41.6384	33.3102	-62.6773	40.3348	19.0425	-33.3916	86.3147	74.1067	-3.13745	102.602	61.6809	21.8476	67.4869	79.1142	25.4033	
82	0.683333	27.7352	51.5179	34.1266	4.58345	40.3422	7.22679	-8.17167	36.4929	-25.9154	1.42739	35.0575	-52.371	30.3856	114.55	-20.4155	16.0064	129.673	-41.9401	-1.38165	119.93	-67.1586	32.3424	89.6719	-49.5168	11.3396	66.5913	-65.7959	14.0181	30.4695	-39.1508	45.1185	70.6738	-60.1725	26.7291	44.4405	-62.2803	31.8364	26.266	-35.3969	65.2044	58.5517	-57.8056	42.9802	31.932	-63.479	40.8157	18.6835	-35.1464	86.1687	75.3555	-8.62897	100.018	64.2015	20.4979	64.6181	79.4043	23.6406	
83	0.691667	31.9803	50.5651	34.2691	3.20295	39.9734	6.8941	-9.80974	35.2487	-23.3894	-0.242081	34.6227	-52.7158	31.3434	111.83	-18.5251	13.1597	129.728	-43.3266	-7.23379	118.41	-67.9325	34.2828	88.8967	-50.0802	13.2329	63.6969	-66.358	13.5362	31.2913	-41.9704	45.9575	71.2474	-56.2602	29.6844	45.548	-65.4107	30.3736	25.9865	-31.7244	61.8927	56.3465	-59.8378	40.4533	31.5149	-60.021	40.9509	18.2373	-33.7303	88.5228	74.2262	-7.82517	103.536	59.5411	21.9136	66.5562	80.248	24.9796	
84	0.7	31.4303	50.8796	34.751	6.50306	41.5992	7.4959	-11.112	36.5964	-25.1787	-0.470421	34.2264	-49.9556	27.0551	114.676	-15.9768	14.5611	127.473	-44.3475	-5.67653	114.662	-68.2064	32.4044	88.8349	-47.0559	11.2452	60.9221	-65.7852	15.7129	28.8322	-41.3736	42.8322	71.1354	-58.2838	30.8939	42.4512	-66.1266	29.9482	27.1175	-32.7149	66.5974	57.4529	-56.4509	43.6356	31.1127	-63.8419	41.037	19.7615	-33.9803	83.1055	76.626	-6.09426	100.881	62.4142	20.9902	66.1085	79.3336	23.5516	
85	0.708333	30.7459	52.5053	33.9551	4.34422	42.395	9.49233	-8.65711	39.1571	-23.5238	-4.61011	36.9897	-50.9562	28.5645	112.53	-15.6369	14.2228	128.579	-42.4583	-5.881	110.346	-66.7257	28.9242	91.2552	-48.9119	13.8319	66.2037	-66.8929	13.8251	30.7298	-40.7058	46.6987	70.4301	-59.893	28.2671	47.6153	-64.3823	33.9952	25.6726	-33.4375	63.0122	58.2042	-58.2708	42.8399	34.1309	-63.1295	42.1395	21.6395	-30.8803	84.7127	75.0941	-2.90069	100.997	59.4995	24.2711	68.0555	77.7765	28.0219	
86	0.716667	28.4724	53.4986	35.7433	1.59038	43.6148	12.5705	-14.496	44.0924	-22.717	-7.11791	42.3729	-50.0052	27.2865	117.271	-15.231	13.8405	127.634	-40.0399	-4.09793	100.183	-63.0788	33.0835	95.691	-46.6428	13.6518	69.4609	-66.3956	13.7492	36.651	-40.5869	46.0614	75.6031	-59.4659	27.549	50.9288	-62.5681	31.4726	33.1437	-30.636	64.1151	63.5318	-55.7245	40.9642	40.6013	-61.9123	40.3589	24.3804	-35.345	84.0182	77.2752	-3.45623	101.634	64.0503	25.134	65.1243	82.01	28.3368	
87	0.725	29.2143	53.4033	39.0262	1.30685	51.3793	10.8009	-15.1124	51.9291	-22.2114	-2.97105	54.9543	-50.5635	26.6379	119.997	-14.4334	10.8035	126.538	-40.3007	-5.14916	96.2266	-52.8787	32.3242	104.408	-43.5986	13.6991	81.7905	-62.6375	16.9072	46.4176	-44.3302	47.1385	87.1963	-54.5544	31.9784	61.167	-64.5574	33.0292	40.8591	-35.5665	67.6084	72.1785	-55.0536	44.6799	50.7967	-62.8459	45.0473	29.6271	-36.7143	86.953	81.7004	1.98559	98.0599	65.3791	26.6221	64.6872	80.3385	33.6366	
